<?xml version="1.0" encoding="UTF-8"?>
<svg width="24px" height="34px" viewBox="0 0 24 34" version="1.1" xmlns="http://www.w3.org/2000/svg" xmlns:xlink="http://www.w3.org/1999/xlink">
    <!-- Generator: Sketch 55 (78076) - https://sketchapp.com -->
    <title>elec</title>
    <desc>Created with Sketch.</desc>
    <g id="HomePage" stroke="none" stroke-width="1" fill="none" fill-rule="evenodd">
        <g id="MOI-Homepage_Emergency_Contacts" transform="translate(-272.000000, -231.000000)">
            <g id="elec" transform="translate(264.000000, 228.000000)">
                <rect id="bound" x="0" y="0" width="40" height="40"></rect>
                <path d="M29.28,12.0047506 L29.28,20.4038005 C29.28,25.087886 25.52,28.9239905 20.84,28.9239905 L19.08,28.9239905 C14.44,28.9239905 10.64,25.128266 10.64,20.4038005 L10.64,12.0047506 L9.36,12.0047506 C8.6,12.0047506 8,11.3990499 8,10.631829 C8,9.86460808 8.6,9.25890736 9.36,9.25890736 L30.64,9.25890736 C31.4,9.25890736 32,9.86460808 32,10.631829 C32,11.3990499 31.4,12.0047506 30.64,12.0047506 L29.28,12.0047506 Z M18.4,25.935867 L23.48,18.5866983 L20.44,18.5866983 L21.44,13.2969121 L16.52,20.6460808 L19.56,20.6460808 L18.4,25.935867 Z M16.04,4.37292162 L16.04,8.45130641 L13.32,8.45130641 L13.32,4.37292162 C13.32,3.60570071 13.92,3 14.68,3 C15.44,3 16.04,3.60570071 16.04,4.37292162 Z M26.68,4.37292162 L26.68,8.45130641 L23.96,8.45130641 L23.96,4.37292162 C23.96,3.60570071 24.56,3 25.32,3 C26.04,3 26.68,3.60570071 26.68,4.37292162 Z M18.64,35.6270784 L18.64,29.7719715 L21.36,29.7719715 L21.36,35.6270784 C21.36,36.3942993 20.76,37 20,37 C19.24,37 18.64,36.3942993 18.64,35.6270784 Z" id="Combined-Shape" fill="#8D1B3D" fill-rule="nonzero"></path>
            </g>
        </g>
    </g>
</svg>