<?xml version="1.0" encoding="UTF-8"?>
<svg width="57px" height="64px" viewBox="0 0 57 64" version="1.1" xmlns="http://www.w3.org/2000/svg" xmlns:xlink="http://www.w3.org/1999/xlink">
    <!-- Generator: Sketch 55 (78076) - https://sketchapp.com -->
    <title>Combined Shape</title>
    <desc>Created with Sketch.</desc>
    <g id="HomePage" stroke="none" stroke-width="1" fill="none" fill-rule="evenodd">
        <g id="MOI-Homepage" transform="translate(-534.000000, -926.000000)" fill="#000000" fill-rule="nonzero">
            <g id="Group-35" transform="translate(77.000000, 862.000000)">
                <g id="Group-10" transform="translate(410.000000, 26.000000)">
                    <g id="Oval">
                        <path d="M60.3610009,84.1363281 L60.7623709,84.1363281 L60.7623709,72.815625 L60.361001,72.815625 C59.918164,72.815625 59.559826,72.4574218 59.559826,72.015625 L59.559826,69.078125 C59.559826,68.7746094 59.7319534,68.4972656 60.0034453,68.3621094 L65.3753861,65.6890625 C65.4864865,65.6339843 65.6085406,65.6050781 65.7329417,65.6050781 L67.5621869,65.6050781 L67.5621869,59.9222656 L67.1623818,59.9222656 C66.7195449,59.9222656 66.3612069,59.5640625 66.3612069,59.1222656 C66.3612069,53.9893554 70.3039031,49.8041015 75.3000976,49.3948242 L75.3000976,48.1667968 C75.3000976,47.7249999 75.6584356,47.3667968 76.1012725,47.3667968 C76.5441095,47.3667968 76.9024475,47.7249999 76.9024475,48.1667968 L76.9024475,49.3948242 C81.8984462,49.803955 85.8405557,53.987207 85.8405557,59.0796874 C85.8405557,59.5214843 85.4822177,59.9222656 85.0393808,59.9222656 L84.6403581,59.9222656 L84.6403581,65.6050781 L86.4696032,65.6050781 C86.5940045,65.6050781 86.7160584,65.6339843 86.8271589,65.6890625 L92.1990996,68.3621094 C92.4705915,68.4972656 92.6427189,68.7746094 92.6427189,69.078125 L92.6427189,72.015625 C92.6427189,72.4574218 92.2843809,72.815625 91.841544,72.815625 L91.4401741,72.815625 L91.4401741,84.1363282 L91.841544,84.1363282 C92.2843809,84.1363282 92.6427189,84.4945313 92.6427189,84.9363282 L92.6427189,89.23125 C92.6427189,89.6730469 92.2843809,90.03125 91.841544,90.03125 L60.3610009,90.03125 C59.9181639,90.03125 59.5598259,89.6730469 59.5598259,89.23125 L59.5598259,84.9363282 C59.5598259,84.4945313 59.9181639,84.1363282 60.3610009,84.1363282 Z M91.040369,88.43125 L91.040369,85.7363282 L61.1621759,85.7363282 L61.1621759,88.43125 L91.040369,88.43125 Z M79.701083,84.1363282 L83.6967867,84.1363282 L83.6967867,74.7910156 L79.701083,74.7910156 L79.701083,84.1363282 Z M78.098733,74.7910156 L74.1030293,74.7910156 L74.1030293,84.1363281 L78.098733,84.1363281 L78.098733,74.7910156 Z M85.0511166,73.1910156 L85.0511166,71.9082031 L76.1012724,70.1246094 L67.1506458,71.9082031 L67.1506458,73.1910156 L85.0511166,73.1910156 Z M72.5006794,74.7910156 L68.5049757,74.7910156 L68.5049757,84.1363281 L72.5006794,84.1363281 L72.5006794,74.7910156 Z M89.8378241,84.1363282 L89.8378241,72.815625 L86.6534666,72.815625 L86.6534666,73.9910156 C86.6534666,74.4328125 86.2951286,74.7910156 85.8522916,74.7910156 L85.2991366,74.7910156 L85.2991366,84.1363282 L89.8378241,84.1363282 Z M83.038008,65.6050782 L83.038008,59.9222656 L79.4812293,59.9222656 L79.4812293,65.6050782 L83.038008,65.6050782 Z M77.8788794,59.9222656 L74.3228831,59.9222656 L74.3228831,65.6050781 L77.8788794,65.6050781 L77.8788794,59.9222656 Z M76.1012724,50.9542969 C71.8700671,50.9542969 68.3821393,54.1957031 67.9987646,58.3222656 L84.2029978,58.3222656 C83.8196231,54.1957031 80.3324777,50.9542969 76.1012724,50.9542969 Z M69.1645368,59.9222656 L69.1645368,65.6050781 L72.7205331,65.6050781 L72.7205331,59.9222656 L69.1645368,59.9222656 Z M61.1621759,69.5734375 L61.1621759,71.215625 L65.5547506,71.215625 C65.5719634,70.8503418 65.8307414,70.5396973 66.1929914,70.4675782 L75.944793,68.5246094 C76.0480694,68.5035157 76.1544755,68.5035157 76.2577519,68.5246094 L86.0087711,70.4675782 C86.3710211,70.5396973 86.629799,70.8503418 86.6470118,71.215625 L91.040369,71.215625 L91.040369,69.5734375 L86.2810454,67.2050782 L65.9214995,67.2050782 L61.1621759,69.5734375 Z M62.3647207,72.815625 L62.3647207,84.1363281 L66.9026258,84.1363281 L66.9026258,74.7910156 L66.3494708,74.7910156 C65.9066338,74.7910156 65.5482958,74.4328125 65.5482958,73.9910156 L65.5482958,72.815625 L62.3647207,72.815625 Z M47.801175,102 C47.358338,102 47,101.641797 47,101.2 L47,38.8 C47,38.3582031 47.358338,38 47.801175,38 L93.5636007,38 C96.0876148,38 98.141408,40.0507813 98.141408,42.5714842 L98.141408,43.5996091 L101.59491,43.5996091 C102.921074,43.5996091 104,44.6769529 104,46.0011716 L104,51.997656 C104,52.6153806 103.758826,53.1735838 103.373886,53.5995603 C103.758826,54.0254881 104,54.5836424 104,55.2011717 L104,61.1976561 C104,61.8153807 103.758826,62.3735838 103.373886,62.7995604 C103.758826,63.2254882 104,63.7836425 104,64.4011718 L104,70.3976562 C104,71.0153808 103.758826,71.5735839 103.373886,71.9995605 C103.758826,72.4254882 104,72.9836426 104,73.6011718 L104,79.5976562 C104,80.9222656 102.921074,81.9996094 101.59491,81.9996094 L98.141408,81.9996094 L98.141408,97.4285156 C98.141408,99.9492187 96.0876148,102 93.5636007,102 L47.801175,102 Z M102.39765,55.2011718 C102.39765,54.759375 102.037747,54.3996094 101.59491,54.3996094 L98.141408,54.3996094 L98.141408,61.9996094 L101.59491,61.9996094 C102.037747,61.9996094 102.39765,61.6398438 102.39765,61.1976562 L102.39765,55.2011718 Z M102.39765,64.4011718 C102.39765,63.959375 102.037747,63.5996094 101.59491,63.5996094 L98.141408,63.5996094 L98.141408,71.1996094 L101.59491,71.1996094 C102.037747,71.1996094 102.39765,70.8398438 102.39765,70.3976562 L102.39765,64.4011718 Z M102.39765,79.5976562 L102.39765,73.6011718 C102.39765,73.159375 102.037747,72.7996094 101.59491,72.7996094 L98.141408,72.7996094 L98.141408,80.3996094 L101.59491,80.3996094 C102.037747,80.3996094 102.39765,80.0398438 102.39765,79.5976562 Z M101.59491,45.1996094 L98.141408,45.1996094 L98.141408,52.7996094 L101.59491,52.7996094 C102.037747,52.7996094 102.39765,52.4398438 102.39765,51.9976562 L102.39765,46.0011718 C102.39765,45.559375 102.037747,45.1996094 101.59491,45.1996094 Z M96.5390581,42.5714844 C96.5390581,40.9328125 95.2042881,39.6 93.5636007,39.6 L55.4123372,39.6 L55.4123372,100.4 L93.5636007,100.4 C95.2042881,100.4 96.5390581,99.0671875 96.5390581,97.4285157 L96.5390581,42.5714844 Z M48.6023499,39.6 L48.6023499,100.4 L53.8099872,100.4 L53.8099872,39.6 L48.6023499,39.6 Z" id="Combined-Shape"></path>
                    </g>
                </g>
            </g>
        </g>
    </g>
</svg>