<svg xmlns="http://www.w3.org/2000/svg" width="50" height="50" viewBox="0 0 50 50"><g><g><path d="M50 9.903v16.43c0 .346-.28.626-.625.626h-.95v22.416c0 .345-.28.625-.625.625H2.2a.625.625 0 0 1-.625-.625V26.959h-.95A.625.625 0 0 1 0 26.334V9.903c0-.345.28-.625.625-.625h8.162V2.824c0-.345.28-.625.625-.625h4.553A2.826 2.826 0 0 1 16.715 0h16.57c1.342 0 2.464.943 2.75 2.2h4.553c.346 0 .625.28.625.624v6.454h8.162c.345 0 .625.28.625.625zM15.14 2.824c0 .869.707 1.575 1.575 1.575h16.57c.868 0 1.575-.706 1.575-1.575 0-.868-.707-1.574-1.575-1.574h-16.57c-.868 0-1.575.706-1.575 1.574zm-5.103 6.454h29.926V3.449h-3.928a2.826 2.826 0 0 1-2.75 2.2h-16.57a2.826 2.826 0 0 1-2.75-2.2h-3.928zM47.175 48.75V26.959h-5.962v2.772c0 .345-.28.625-.625.625h-5.422a.625.625 0 0 1-.625-.625V26.96H15.459v2.772c0 .345-.28.625-.625.625H9.412a.625.625 0 0 1-.625-.625V26.96H2.825V48.75zM14.209 29.106V23.09h-4.172v6.017zm25.754 0V23.09h-4.172v6.017zm8.787-18.578H1.25v15.18h7.537v-3.244c0-.345.28-.625.625-.625h5.422c.345 0 .625.28.625.625v3.245h19.082v-3.245c0-.345.28-.625.625-.625h5.422c.346 0 .625.28.625.625v3.245h7.537zM30.126 36.399a.64.64 0 0 1 .524.418.59.59 0 0 1-.165.628l-2.27 2.081.535 2.94a.597.597 0 0 1-.258.598.68.68 0 0 1-.683.048L25 41.722l-2.81 1.39a.676.676 0 0 1-.682-.048.597.597 0 0 1-.258-.599l.536-2.939-2.27-2.08a.59.59 0 0 1-.166-.63.64.64 0 0 1 .524-.417l3.14-.43 1.405-2.674a.654.654 0 0 1 .581-.34c.247 0 .472.131.582.34l1.403 2.675zm-1.492 1.034l-2.172-.296a.65.65 0 0 1-.489-.335L25 34.947l-.973 1.855a.649.649 0 0 1-.489.335l-2.172.296 1.57 1.44c.154.14.223.343.187.543l-.37 2.035 1.946-.963a.682.682 0 0 1 .602 0l1.947.963-.371-2.035a.592.592 0 0 1 .187-.544zm4.32.635c0 4.7-3.823 8.523-8.522 8.523-4.7 0-8.523-3.823-8.523-8.523 0-4.7 3.824-8.523 8.523-8.523 4.7 0 8.523 3.824 8.523 8.523zm-1.253 0c0-4.008-3.26-7.27-7.27-7.27-4.007 0-7.268 3.262-7.268 7.27 0 4.009 3.26 7.27 7.269 7.27 4.008 0 7.27-3.261 7.27-7.27z"/></g></g></svg>